<svg version="1.2" xmlns="http://www.w3.org/2000/svg" viewBox="0 0 1591 1134" width="152" height="36">
	<title>KB_-svg</title>
	<style>
		.s0 { fill: #fcaf16 } 
	</style>
	<g id="Layer">
		<g id="Layer">
			<path id="Layer" class="s0" d="m1590.7 658.7c0 40.2-13.6 87-44.1 125.3-78.5 98.8-225.2 139.3-330.4 144.6-0.9 13.1-5.6 25.1-12.8 28.6l-3.6 1.4c0 0-19 12.1-19.2 12.4-4.8 4.6-11.6 6.1-18.1 4.1-124.8-35.4-331.4-169.5-468.2-258.2 0 0-80.3-50.6-98.7-62.1 0 2.7 0 5.3 0 8.2 0 103.8 7.1 260 14.2 368.1l1.5 23.3c1.1 16 1.9 29 1.9 40.8 0 10.5-0.6 20-2.5 29.6l-3.6 7.9-5.6 0.7c-22.4 2.7-55.9-10.2-67-17.7 0 0-5-5.3-5.4-6.1l-19.3-64.6c-8.4-32.4-17.9-69.1-26.2-81.4l-1.7-3.5-0.2-1.4c-17-86.9-25.8-199.5-28.1-354.4 0 0 0.1-3.6 0.2-5.8-7.3 4-15 8.3-15.4 8.5-13.5 5.9-35.5 19.5-45.7 27.6-8.8 6.6-18.6 14.1-27.5 13.4l-21.6 13c-50.6 30.5-169 102-212.7 121.2-47.4 20.8-72.8 30.6-89.9 30 0 0-9.9-1.6-10.2-1.7l-10.8-7.3c0 0-10.3-6.5-9.9-6.5l-7.5-5.7-2.6-3.7 2.6-5.7c6.6-14.4 22.6-27.6 43.7-36.2 8.6-3.4 47-20.6 56.3-26.9l97.5-64.6c0 0 158.3-105.7 185.4-123.9-0.8-0.5-2.2-1.4-2.2-1.4l-12-6.8c0 0-17.4-13.4-17.4-13.9l-101.9-55.7-66.6-35.3c-57.5-30.9-116.1-70.5-139.3-94.3l-2.3-6-2.1-9.8c-1-3.8-2.2-7.7-2.2-11.6 0-2.7 0.7-5.3 2.2-7.7 11.9-18.3 51.8-45.2 72.6-48.8 0 0 13.2 3.3 12.8 3l48.4 31c0 0 30.1 19.5 31.8 20.6 15.9 9.6 32.5 19.6 46.1 21.4l4.4 0.9 1.1 0.6c37.8 18.5 114.8 56.6 198.2 109.6 8.3-132.7 43.1-298.6 84.8-399.4 1.8-4.5 5-7.3 9.6-8.2l23.3-8.5 17.4-6.5c10.5-2.6 24.7-6.1 42.2 2.7l2 0.5 6.8 12.1c0 0 8.8 16.4 9 16.8l2.4 13.3c-21.4 111.5-38.8 245.1-44.5 339.1 87.4-55.9 254.2-159.5 328.3-201.6l10.3-5.8c13.4-7.3 26.2-14.3 41.4-28.5 67.2-63 140.9-97.4 198.2-91.6 5.1 0.9 8.9 5.6 9.9 9.8 4.1 14.4 3.8 26.8-1 43.1l-1.6 10.3c0 0-3.4 11.5-3.6 11.6-73.2 75.9-212.8 152.8-336 220.4 0 0-127.8 72.4-128.3 72.6 0 0-7.9 5.3-6.8 4.1-5.1 7.6-29 22.5-80.8 52.8 0 0-37 22.2-38.7 24 0 0 0 4.5-0.1 6.7 5.2 3.4 31.7 21.3 31.7 21.3 58.9 39.1 132.1 88 170.6 118.9l6.9 5.6c12.7 10.5 33.7 27.9 45.4 32.4 66.8 25.4 140.4 77.2 199.7 118.8 0 0 66.8 45.3 69.9 47.3 74.8 2.6 135.3-5.8 190.2-26.8 58.2-21.7 102.3-56.6 124.4-98 29.7-55.9 21.5-104.6 17.7-110.1-28.1-30.6-63.6-42.2-108.7-35-79.6 12.1-146.9 92.8-163.5 160.4 0 0-0.7 22.4-0.6 22.5 0.3 8.3-4 14.5-11.2 15.3 0 0-9 1.4-8.7 1.3-23 8.7-63 19.4-75.7 14.7-11.7-4.3-26.8-16-27.8-23.9-9.1-78.3-8.9-169.6 1-273.3 0 0 3.3-9.1 3-8.8 5.8-8.8 11.6-81.5 12-107.5 0 0 6-13.2 6-13.3 11.1-9.7 57-25.8 80.5-26.3 5.8 0 10.4 2.9 12.4 7.9 8.3 19.4 11 42.2 11 66.1 0 23.5-2.6 48.3-5.1 72.7-2.6 24-5.2 48.6-5.2 71.4 0 0.7 0.1 1.4 0.1 2 44-26.8 101.7-55.6 174.4-60.1 87.4-5.1 152.7 15.2 199.6 62.1 0 0 13.8 8.7 13.8 8.7 16.5 15.6 25.6 44 25.6 76.8z"/>
		</g>
	</g>
</svg>